# xmcd CD database file
#
# Track frame offsets:
#	150
#	15111
#	35653
#	46666
#	71941
#	82929
#	94868
#	114326
#	126888
#	141650
#
# Disc length: 2160 seconds
#
# Revision: 0
# Processed by: cddbd v1.5.1PL0 Copyright (c) Steve Scherf et al.
# Submitted via: CDex 1.51
#
DISCID=80086e0a
DTITLE=Moonshine Hangover - Mulberry Squeezins
DYEAR=2003
DGENRE=Country
TTITLE0=For Real
TTITLE1=A Few More Miles
TTITLE2=Sorry Buck
TTITLE3=Hard Man To Know
TTITLE4=Chattahoochie
TTITLE5=Swamp Song
TTITLE6=Roadhouse Prophet
TTITLE7=Woe Is Me
TTITLE8=Thought It Up and Down
TTITLE9=Cocaine Parties
EXTD=YEAR: 2003
EXTT0=
EXTT1=
EXTT2=
EXTT3=
EXTT4=
EXTT5=
EXTT6=
EXTT7=
EXTT8=
EXTT9=
PLAYORDER=
